<svg width="100" height="100" viewBox="0 0 100 100" fill="none" xmlns="http://www.w3.org/2000/svg">
<path d="M100 90C100 95.5229 95.5228 100 90 100L10 100C4.47715 100 -4.82823e-07 95.5228 0 90L6.99382e-06 10C7.47664e-06 4.47715 4.47716 -4.82823e-07 10 0L90 6.99382e-06C95.5229 7.47664e-06 100 4.47716 100 10L100 90Z" fill="#6028FF"/>
<path d="M92 23C92 27.4183 88.4183 31 84 31L44 31C39.5817 31 36 27.4183 36 23V16C36 11.5817 39.5817 8 44 8L84 8C88.4183 8.00001 92 11.5817 92 16V23Z" fill="white"/>
<path d="M92 54C92 58.4183 88.4183 62 84 62L44 62C39.5817 62 36 58.4183 36 54V47C36 42.5817 39.5817 39 44 39L84 39C88.4183 39 92 42.5817 92 47V54Z" fill="white"/>
<path d="M92 84C92 88.4183 88.4183 92 84 92L44 92C39.5817 92 36 88.4183 36 84V78C36 73.5817 39.5817 70 44 70L84 70C88.4183 70 92 73.5817 92 78V84Z" fill="white"/>
<path d="M28 84C28 88.4183 24.4183 92 20 92H16C11.5817 92 7.99999 88.4183 7.99999 84L8 16C8 11.5817 11.5817 8 16 8L20 8C24.4183 8 28 11.5817 28 16L28 84Z" fill="white"/>
</svg>
